<svg xmlns="http://www.w3.org/2000/svg" width="512" height="561.053" viewBox="0 0 135.46666 148.44527" version="1.1" id="svg587">
  
  <defs id="defs584"></defs>
  <g id="layer1">
    <path fill="#ea4335" d="M 63.248843,70.893655 0.5785081,136.11011 c 0.003264,0.0126 0.006027,0.0272 0.009293,0.0396 1.9229558,7.08068 8.5182658,12.29568 16.3489689,12.29568 3.128533,0 6.067067,-0.82994 8.588128,-2.28574 l 0.199409,-0.11727 70.533426,-39.91579 z" id="path82-1-4"></path>
    <path fill="#fbbc04" d="M 126.6502,59.78808 126.5907,59.7493 96.136036,42.436846 61.825263,72.373902 96.257012,106.12669 126.55063,88.98883 c 5.3105,-2.812872 8.91613,-8.301134 8.91613,-14.629467 8.7e-4,-6.289532 -3.55539,-11.748275 -8.81645,-14.571271 z" id="path84-1-4"></path>
    <path fill="#4285f4" d="M 0.57424619,12.331091 C 0.19851691,13.69409 0,15.123722 0,16.602273 V 131.84315 c 0.06132941,1.65399 0.19682171,2.91156 0.57765422,4.26696 L 65.403546,72.56367 Z" id="path86-4-2"></path>
    <path fill="#34a853" d="M 63.710628,74.222719 96.135935,42.436836 25.6843,2.3734407 C 23.123198,0.86958673 20.134392,0 16.936847,0 9.106144,0 2.5006125,5.2251099 0.5785081,12.315068 c -0.001705,0.005 -0.002512,0.01106 -0.004269,0.01683 z" id="path88-7-4"></path>
  </g>
</svg>
